<mxfile host="app.diagrams.net" modified="2023-02-04T20:45:33.336Z" agent="5.0 (Macintosh; Intel Mac OS X 10_15_7) AppleWebKit/537.36 (KHTML, like Gecko) Chrome/107.0.0.0 Safari/537.36" etag="7_LArZMOz5Ih6nU3Dpav" version="20.8.16" type="github">
  <diagram name="Page-1" id="-0jjH8FTeNNia9pA3xTQ">
    <mxGraphModel dx="954" dy="616" grid="0" gridSize="10" guides="1" tooltips="1" connect="1" arrows="1" fold="1" page="1" pageScale="1" pageWidth="850" pageHeight="1100" background="#FFFFFF" math="0" shadow="0">
      <root>
        <mxCell id="0" />
        <mxCell id="1" parent="0" />
        <mxCell id="H5ex5HH7bCMYKhNWScU4-108" value="" style="rounded=0;whiteSpace=wrap;html=1;sketch=1;hachureGap=4;jiggle=2;curveFitting=1;strokeWidth=2;fontFamily=Architects Daughter;fontSource=https%3A%2F%2Ffonts.googleapis.com%2Fcss%3Ffamily%3DArchitects%2BDaughter;fontSize=16;fillColor=none;" parent="1" vertex="1">
          <mxGeometry x="270" y="620" width="1080" height="760" as="geometry" />
        </mxCell>
        <mxCell id="H5ex5HH7bCMYKhNWScU4-64" value="" style="rounded=1;whiteSpace=wrap;html=1;sketch=1;hachureGap=4;jiggle=2;curveFitting=1;strokeWidth=2;fontFamily=Architects Daughter;fontSource=https%3A%2F%2Ffonts.googleapis.com%2Fcss%3Ffamily%3DArchitects%2BDaughter;fontSize=16;fillColor=none;" parent="1" vertex="1">
          <mxGeometry x="1060" y="1460" width="280" height="120" as="geometry" />
        </mxCell>
        <mxCell id="H5ex5HH7bCMYKhNWScU4-33" value="" style="rounded=0;whiteSpace=wrap;html=1;sketch=1;hachureGap=4;jiggle=2;curveFitting=1;fontFamily=Architects Daughter;fontSource=https%3A%2F%2Ffonts.googleapis.com%2Fcss%3Ffamily%3DArchitects%2BDaughter;fontSize=16;fillColor=none;strokeWidth=2;movable=1;resizable=1;rotatable=1;deletable=1;editable=1;connectable=1;" parent="1" vertex="1">
          <mxGeometry x="430" y="777.5" width="242.5" height="380" as="geometry" />
        </mxCell>
        <mxCell id="H5ex5HH7bCMYKhNWScU4-73" style="edgeStyle=orthogonalEdgeStyle;rounded=0;sketch=1;hachureGap=4;jiggle=2;curveFitting=1;orthogonalLoop=1;jettySize=auto;html=1;entryX=0;entryY=0.5;entryDx=0;entryDy=0;fontFamily=Architects Daughter;fontSource=https%3A%2F%2Ffonts.googleapis.com%2Fcss%3Ffamily%3DArchitects%2BDaughter;fontSize=16;" parent="1" source="H5ex5HH7bCMYKhNWScU4-6" target="H5ex5HH7bCMYKhNWScU4-33" edge="1">
          <mxGeometry relative="1" as="geometry" />
        </mxCell>
        <mxCell id="H5ex5HH7bCMYKhNWScU4-6" value="Load Balancer" style="rounded=1;whiteSpace=wrap;html=1;sketch=1;curveFitting=1;jiggle=2;" parent="1" vertex="1">
          <mxGeometry x="290" y="932.5" width="120" height="50" as="geometry" />
        </mxCell>
        <mxCell id="H5ex5HH7bCMYKhNWScU4-7" value="Authentication Server" style="rounded=1;whiteSpace=wrap;html=1;sketch=1;curveFitting=1;jiggle=2;" parent="1" vertex="1">
          <mxGeometry x="290" y="860" width="120" height="50" as="geometry" />
        </mxCell>
        <mxCell id="H5ex5HH7bCMYKhNWScU4-9" value="Kubernetes Cluster - Controllers" style="text;html=1;strokeColor=none;fillColor=none;align=center;verticalAlign=middle;whiteSpace=wrap;rounded=1;sketch=1;curveFitting=1;jiggle=2;" parent="1" vertex="1">
          <mxGeometry x="410" y="780" width="240" height="30" as="geometry" />
        </mxCell>
        <mxCell id="H5ex5HH7bCMYKhNWScU4-36" style="edgeStyle=orthogonalEdgeStyle;rounded=0;sketch=1;hachureGap=4;jiggle=2;curveFitting=1;orthogonalLoop=1;jettySize=auto;html=1;fontFamily=Architects Daughter;fontSource=https%3A%2F%2Ffonts.googleapis.com%2Fcss%3Ffamily%3DArchitects%2BDaughter;fontSize=16;noJump=0;" parent="1" source="H5ex5HH7bCMYKhNWScU4-10" target="H5ex5HH7bCMYKhNWScU4-16" edge="1">
          <mxGeometry relative="1" as="geometry" />
        </mxCell>
        <mxCell id="H5ex5HH7bCMYKhNWScU4-10" value="SMS API" style="rounded=1;whiteSpace=wrap;html=1;strokeWidth=2;fillColor=none;sketch=1;curveFitting=1;jiggle=2;movable=1;resizable=1;rotatable=1;deletable=1;editable=1;connectable=1;" parent="1" vertex="1">
          <mxGeometry x="466.25" y="820" width="130" height="60" as="geometry" />
        </mxCell>
        <mxCell id="H5ex5HH7bCMYKhNWScU4-37" style="edgeStyle=orthogonalEdgeStyle;rounded=0;sketch=1;hachureGap=4;jiggle=2;curveFitting=1;orthogonalLoop=1;jettySize=auto;html=1;fontFamily=Architects Daughter;fontSource=https%3A%2F%2Ffonts.googleapis.com%2Fcss%3Ffamily%3DArchitects%2BDaughter;fontSize=16;" parent="1" source="H5ex5HH7bCMYKhNWScU4-11" target="H5ex5HH7bCMYKhNWScU4-22" edge="1">
          <mxGeometry relative="1" as="geometry" />
        </mxCell>
        <mxCell id="H5ex5HH7bCMYKhNWScU4-11" value="Email API" style="rounded=1;whiteSpace=wrap;html=1;strokeWidth=2;fillColor=none;sketch=1;curveFitting=1;jiggle=2;movable=1;resizable=1;rotatable=1;deletable=1;editable=1;connectable=1;" parent="1" vertex="1">
          <mxGeometry x="460" y="912.5" width="131.25" height="60" as="geometry" />
        </mxCell>
        <mxCell id="H5ex5HH7bCMYKhNWScU4-38" style="edgeStyle=orthogonalEdgeStyle;rounded=0;sketch=1;hachureGap=4;jiggle=2;curveFitting=1;orthogonalLoop=1;jettySize=auto;html=1;entryX=0.5;entryY=0;entryDx=0;entryDy=0;entryPerimeter=0;fontFamily=Architects Daughter;fontSource=https%3A%2F%2Ffonts.googleapis.com%2Fcss%3Ffamily%3DArchitects%2BDaughter;fontSize=16;" parent="1" source="H5ex5HH7bCMYKhNWScU4-12" target="H5ex5HH7bCMYKhNWScU4-26" edge="1">
          <mxGeometry relative="1" as="geometry" />
        </mxCell>
        <mxCell id="H5ex5HH7bCMYKhNWScU4-12" value="Push Notification" style="rounded=1;whiteSpace=wrap;html=1;strokeWidth=2;fillColor=none;sketch=1;curveFitting=1;jiggle=2;movable=1;resizable=1;rotatable=1;deletable=1;editable=1;connectable=1;" parent="1" vertex="1">
          <mxGeometry x="466.25" y="1002.5" width="125" height="60" as="geometry" />
        </mxCell>
        <mxCell id="H5ex5HH7bCMYKhNWScU4-51" style="edgeStyle=orthogonalEdgeStyle;rounded=0;sketch=1;hachureGap=4;jiggle=2;curveFitting=1;orthogonalLoop=1;jettySize=auto;html=1;entryX=0;entryY=0.5;entryDx=0;entryDy=0;fontFamily=Architects Daughter;fontSource=https%3A%2F%2Ffonts.googleapis.com%2Fcss%3Ffamily%3DArchitects%2BDaughter;fontSize=16;" parent="1" source="H5ex5HH7bCMYKhNWScU4-16" target="H5ex5HH7bCMYKhNWScU4-47" edge="1">
          <mxGeometry relative="1" as="geometry" />
        </mxCell>
        <mxCell id="H5ex5HH7bCMYKhNWScU4-16" value="" style="shape=cylinder3;whiteSpace=wrap;html=1;boundedLbl=1;backgroundOutline=1;size=15;rounded=0;sketch=1;hachureGap=4;jiggle=2;curveFitting=1;fontFamily=Architects Daughter;fontSource=https%3A%2F%2Ffonts.googleapis.com%2Fcss%3Ffamily%3DArchitects%2BDaughter;fontSize=20;fillColor=#FFFFFF;rotation=-90;" parent="1" vertex="1">
          <mxGeometry x="845" y="792.5" width="40" height="210" as="geometry" />
        </mxCell>
        <mxCell id="H5ex5HH7bCMYKhNWScU4-17" value="&lt;font style=&quot;font-size: 16px;&quot;&gt;SMS Topic&lt;/font&gt;" style="text;html=1;strokeColor=none;fillColor=none;align=center;verticalAlign=middle;whiteSpace=wrap;rounded=0;fontSize=20;fontFamily=Architects Daughter;" parent="1" vertex="1">
          <mxGeometry x="800" y="882.5" width="130" height="30" as="geometry" />
        </mxCell>
        <mxCell id="H5ex5HH7bCMYKhNWScU4-52" style="edgeStyle=orthogonalEdgeStyle;rounded=0;sketch=1;hachureGap=4;jiggle=2;curveFitting=1;orthogonalLoop=1;jettySize=auto;html=1;fontFamily=Architects Daughter;fontSource=https%3A%2F%2Ffonts.googleapis.com%2Fcss%3Ffamily%3DArchitects%2BDaughter;fontSize=16;" parent="1" source="H5ex5HH7bCMYKhNWScU4-22" target="H5ex5HH7bCMYKhNWScU4-48" edge="1">
          <mxGeometry relative="1" as="geometry" />
        </mxCell>
        <mxCell id="H5ex5HH7bCMYKhNWScU4-22" value="" style="shape=cylinder3;whiteSpace=wrap;html=1;boundedLbl=1;backgroundOutline=1;size=15;rounded=0;sketch=1;hachureGap=4;jiggle=2;curveFitting=1;fontFamily=Architects Daughter;fontSource=https%3A%2F%2Ffonts.googleapis.com%2Fcss%3Ffamily%3DArchitects%2BDaughter;fontSize=20;fillColor=#FFFFFF;rotation=-90;" parent="1" vertex="1">
          <mxGeometry x="845" y="862.5" width="40" height="210" as="geometry" />
        </mxCell>
        <mxCell id="H5ex5HH7bCMYKhNWScU4-23" value="&lt;font style=&quot;font-size: 16px;&quot;&gt;Email Topic&lt;/font&gt;" style="text;html=1;strokeColor=none;fillColor=none;align=center;verticalAlign=middle;whiteSpace=wrap;rounded=0;fontSize=20;fontFamily=Architects Daughter;" parent="1" vertex="1">
          <mxGeometry x="800" y="952.5" width="130" height="30" as="geometry" />
        </mxCell>
        <mxCell id="H5ex5HH7bCMYKhNWScU4-26" value="" style="shape=cylinder3;whiteSpace=wrap;html=1;boundedLbl=1;backgroundOutline=1;size=15;rounded=0;sketch=1;hachureGap=4;jiggle=2;curveFitting=1;fontFamily=Architects Daughter;fontSource=https%3A%2F%2Ffonts.googleapis.com%2Fcss%3Ffamily%3DArchitects%2BDaughter;fontSize=20;fillColor=#FFFFFF;rotation=-90;" parent="1" vertex="1">
          <mxGeometry x="847.5" y="945" width="40" height="215" as="geometry" />
        </mxCell>
        <mxCell id="H5ex5HH7bCMYKhNWScU4-53" style="edgeStyle=orthogonalEdgeStyle;rounded=0;sketch=1;hachureGap=4;jiggle=2;curveFitting=1;orthogonalLoop=1;jettySize=auto;html=1;fontFamily=Architects Daughter;fontSource=https%3A%2F%2Ffonts.googleapis.com%2Fcss%3Ffamily%3DArchitects%2BDaughter;fontSize=16;" parent="1" source="H5ex5HH7bCMYKhNWScU4-27" target="H5ex5HH7bCMYKhNWScU4-49" edge="1">
          <mxGeometry relative="1" as="geometry" />
        </mxCell>
        <mxCell id="H5ex5HH7bCMYKhNWScU4-27" value="&lt;font style=&quot;font-size: 16px;&quot;&gt;Push Notification&lt;/font&gt;" style="text;html=1;strokeColor=none;fillColor=none;align=center;verticalAlign=middle;whiteSpace=wrap;rounded=0;fontSize=20;fontFamily=Architects Daughter;" parent="1" vertex="1">
          <mxGeometry x="780" y="1037.5" width="180" height="30" as="geometry" />
        </mxCell>
        <mxCell id="H5ex5HH7bCMYKhNWScU4-31" value="&lt;b&gt;Auto Scale Group / n replicas&lt;/b&gt;" style="text;html=1;strokeColor=none;fillColor=none;align=center;verticalAlign=middle;whiteSpace=wrap;rounded=0;fontSize=16;fontFamily=Architects Daughter;movable=1;resizable=1;rotatable=1;deletable=1;editable=1;connectable=1;" parent="1" vertex="1">
          <mxGeometry x="466.25" y="1090" width="130" height="40" as="geometry" />
        </mxCell>
        <mxCell id="H5ex5HH7bCMYKhNWScU4-45" value="" style="rounded=0;whiteSpace=wrap;html=1;sketch=1;hachureGap=4;jiggle=2;curveFitting=1;fontFamily=Architects Daughter;fontSource=https%3A%2F%2Ffonts.googleapis.com%2Fcss%3Ffamily%3DArchitects%2BDaughter;fontSize=16;fillColor=none;strokeWidth=2;movable=1;resizable=1;rotatable=1;deletable=1;editable=1;connectable=1;" parent="1" vertex="1">
          <mxGeometry x="1070" y="777.5" width="220" height="380" as="geometry" />
        </mxCell>
        <mxCell id="H5ex5HH7bCMYKhNWScU4-46" value="Kubernetes Cluster - Logic Ms" style="text;html=1;strokeColor=none;fillColor=none;align=center;verticalAlign=middle;whiteSpace=wrap;rounded=1;sketch=1;curveFitting=1;jiggle=2;" parent="1" vertex="1">
          <mxGeometry x="1070" y="777.5" width="240" height="30" as="geometry" />
        </mxCell>
        <mxCell id="H5ex5HH7bCMYKhNWScU4-85" style="edgeStyle=orthogonalEdgeStyle;rounded=0;sketch=1;hachureGap=4;jiggle=2;curveFitting=1;orthogonalLoop=1;jettySize=auto;html=1;entryX=0;entryY=0.5;entryDx=0;entryDy=0;fontFamily=Architects Daughter;fontSource=https%3A%2F%2Ffonts.googleapis.com%2Fcss%3Ffamily%3DArchitects%2BDaughter;fontSize=16;" parent="1" source="H5ex5HH7bCMYKhNWScU4-47" target="H5ex5HH7bCMYKhNWScU4-83" edge="1">
          <mxGeometry relative="1" as="geometry" />
        </mxCell>
        <mxCell id="H5ex5HH7bCMYKhNWScU4-47" value="SMS Processor" style="rounded=1;whiteSpace=wrap;html=1;strokeWidth=2;fillColor=none;sketch=1;curveFitting=1;jiggle=2;movable=1;resizable=1;rotatable=1;deletable=1;editable=1;connectable=1;" parent="1" vertex="1">
          <mxGeometry x="1126.25" y="817.5" width="130" height="60" as="geometry" />
        </mxCell>
        <mxCell id="H5ex5HH7bCMYKhNWScU4-88" style="edgeStyle=orthogonalEdgeStyle;rounded=0;sketch=1;hachureGap=4;jiggle=2;curveFitting=1;orthogonalLoop=1;jettySize=auto;html=1;entryX=0;entryY=0.5;entryDx=0;entryDy=0;fontFamily=Architects Daughter;fontSource=https%3A%2F%2Ffonts.googleapis.com%2Fcss%3Ffamily%3DArchitects%2BDaughter;fontSize=16;" parent="1" source="H5ex5HH7bCMYKhNWScU4-48" target="H5ex5HH7bCMYKhNWScU4-86" edge="1">
          <mxGeometry relative="1" as="geometry" />
        </mxCell>
        <mxCell id="H5ex5HH7bCMYKhNWScU4-48" value="Email Processor" style="rounded=1;whiteSpace=wrap;html=1;strokeWidth=2;fillColor=none;sketch=1;curveFitting=1;jiggle=2;movable=1;resizable=1;rotatable=1;deletable=1;editable=1;connectable=1;" parent="1" vertex="1">
          <mxGeometry x="1120" y="910" width="140" height="60" as="geometry" />
        </mxCell>
        <mxCell id="H5ex5HH7bCMYKhNWScU4-90" style="edgeStyle=orthogonalEdgeStyle;rounded=0;sketch=1;hachureGap=4;jiggle=2;curveFitting=1;orthogonalLoop=1;jettySize=auto;html=1;entryX=0;entryY=0.5;entryDx=0;entryDy=0;fontFamily=Architects Daughter;fontSource=https%3A%2F%2Ffonts.googleapis.com%2Fcss%3Ffamily%3DArchitects%2BDaughter;fontSize=16;" parent="1" source="H5ex5HH7bCMYKhNWScU4-49" target="H5ex5HH7bCMYKhNWScU4-89" edge="1">
          <mxGeometry relative="1" as="geometry" />
        </mxCell>
        <mxCell id="H5ex5HH7bCMYKhNWScU4-49" value="Notification Processor" style="rounded=1;whiteSpace=wrap;html=1;strokeWidth=2;fillColor=none;sketch=1;curveFitting=1;jiggle=2;movable=1;resizable=1;rotatable=1;deletable=1;editable=1;connectable=1;" parent="1" vertex="1">
          <mxGeometry x="1126.25" y="1000" width="125" height="60" as="geometry" />
        </mxCell>
        <mxCell id="H5ex5HH7bCMYKhNWScU4-50" value="&lt;b&gt;Auto Scale Group / n replicas&lt;/b&gt;" style="text;html=1;strokeColor=none;fillColor=none;align=center;verticalAlign=middle;whiteSpace=wrap;rounded=0;fontSize=16;fontFamily=Architects Daughter;movable=1;resizable=1;rotatable=1;deletable=1;editable=1;connectable=1;" parent="1" vertex="1">
          <mxGeometry x="1126.25" y="1087.5" width="130" height="40" as="geometry" />
        </mxCell>
        <mxCell id="H5ex5HH7bCMYKhNWScU4-54" value="&lt;h1&gt;Namespaces&lt;/h1&gt;&lt;p&gt;SMS , Email, Notification each have its own k8s namespace&lt;/p&gt;" style="text;html=1;strokeColor=none;fillColor=none;spacing=5;spacingTop=-20;whiteSpace=wrap;overflow=hidden;rounded=0;fontSize=16;fontFamily=Architects Daughter;" parent="1" vertex="1">
          <mxGeometry x="790" y="640" width="200" height="140" as="geometry" />
        </mxCell>
        <mxCell id="H5ex5HH7bCMYKhNWScU4-55" value="&lt;font style=&quot;font-size: 12px;&quot;&gt;Template DB&lt;/font&gt;" style="shape=cylinder3;whiteSpace=wrap;html=1;boundedLbl=1;backgroundOutline=1;size=15;rounded=0;sketch=1;hachureGap=4;jiggle=2;curveFitting=1;strokeWidth=2;fontFamily=Architects Daughter;fontSource=https%3A%2F%2Ffonts.googleapis.com%2Fcss%3Ffamily%3DArchitects%2BDaughter;fontSize=16;fillColor=none;" parent="1" vertex="1">
          <mxGeometry x="1210" y="1470" width="60" height="100" as="geometry" />
        </mxCell>
        <mxCell id="H5ex5HH7bCMYKhNWScU4-106" style="edgeStyle=orthogonalEdgeStyle;rounded=0;sketch=1;hachureGap=4;jiggle=2;curveFitting=1;orthogonalLoop=1;jettySize=auto;html=1;entryX=0.489;entryY=-0.012;entryDx=0;entryDy=0;entryPerimeter=0;fontFamily=Architects Daughter;fontSource=https%3A%2F%2Ffonts.googleapis.com%2Fcss%3Ffamily%3DArchitects%2BDaughter;fontSize=16;" parent="1" source="H5ex5HH7bCMYKhNWScU4-59" target="H5ex5HH7bCMYKhNWScU4-61" edge="1">
          <mxGeometry relative="1" as="geometry" />
        </mxCell>
        <mxCell id="H5ex5HH7bCMYKhNWScU4-59" value="" style="rounded=0;whiteSpace=wrap;html=1;sketch=1;hachureGap=4;jiggle=2;curveFitting=1;strokeWidth=2;fontFamily=Architects Daughter;fontSource=https%3A%2F%2Ffonts.googleapis.com%2Fcss%3Ffamily%3DArchitects%2BDaughter;fontSize=12;fillColor=none;" parent="1" vertex="1">
          <mxGeometry x="270" y="1440" width="1080" height="390" as="geometry" />
        </mxCell>
        <mxCell id="H5ex5HH7bCMYKhNWScU4-72" style="edgeStyle=orthogonalEdgeStyle;rounded=0;sketch=1;hachureGap=4;jiggle=2;curveFitting=1;orthogonalLoop=1;jettySize=auto;html=1;fontFamily=Architects Daughter;fontSource=https%3A%2F%2Ffonts.googleapis.com%2Fcss%3Ffamily%3DArchitects%2BDaughter;fontSize=16;entryX=0.5;entryY=1;entryDx=0;entryDy=0;exitX=0.5;exitY=0;exitDx=0;exitDy=0;" parent="1" source="H5ex5HH7bCMYKhNWScU4-100" target="H5ex5HH7bCMYKhNWScU4-6" edge="1">
          <mxGeometry relative="1" as="geometry">
            <mxPoint x="309.9999999999998" y="1060" as="targetPoint" />
            <Array as="points">
              <mxPoint x="350" y="1500" />
            </Array>
          </mxGeometry>
        </mxCell>
        <mxCell id="H5ex5HH7bCMYKhNWScU4-60" value="&lt;font style=&quot;font-size: 16px;&quot;&gt;&lt;b&gt;Process Layer&lt;/b&gt;&lt;/font&gt;" style="text;html=1;strokeColor=none;fillColor=none;align=center;verticalAlign=middle;whiteSpace=wrap;rounded=0;fontSize=12;fontFamily=Architects Daughter;" parent="1" vertex="1">
          <mxGeometry x="280" y="1450" width="160" height="30" as="geometry" />
        </mxCell>
        <mxCell id="H5ex5HH7bCMYKhNWScU4-107" style="edgeStyle=orthogonalEdgeStyle;rounded=0;sketch=1;hachureGap=4;jiggle=2;curveFitting=1;orthogonalLoop=1;jettySize=auto;html=1;fontFamily=Architects Daughter;fontSource=https%3A%2F%2Ffonts.googleapis.com%2Fcss%3Ffamily%3DArchitects%2BDaughter;fontSize=16;entryX=0.52;entryY=0.995;entryDx=0;entryDy=0;entryPerimeter=0;" parent="1" source="H5ex5HH7bCMYKhNWScU4-61" target="H5ex5HH7bCMYKhNWScU4-59" edge="1">
          <mxGeometry relative="1" as="geometry">
            <mxPoint x="840" y="1860" as="targetPoint" />
            <Array as="points">
              <mxPoint x="830" y="1828" />
            </Array>
          </mxGeometry>
        </mxCell>
        <mxCell id="H5ex5HH7bCMYKhNWScU4-61" value="" style="rounded=0;whiteSpace=wrap;html=1;sketch=1;hachureGap=4;jiggle=2;curveFitting=1;strokeWidth=2;fontFamily=Architects Daughter;fontSource=https%3A%2F%2Ffonts.googleapis.com%2Fcss%3Ffamily%3DArchitects%2BDaughter;fontSize=12;fillColor=#d5e8d4;strokeColor=#82b366;" parent="1" vertex="1">
          <mxGeometry x="280" y="1960" width="1080" height="160" as="geometry" />
        </mxCell>
        <mxCell id="H5ex5HH7bCMYKhNWScU4-62" value="&lt;font style=&quot;font-size: 16px;&quot;&gt;&lt;b&gt;Core Banking Services&lt;/b&gt;&lt;/font&gt;" style="text;html=1;strokeColor=none;fillColor=none;align=center;verticalAlign=middle;whiteSpace=wrap;rounded=0;fontSize=12;fontFamily=Architects Daughter;" parent="1" vertex="1">
          <mxGeometry x="270" y="1970" width="230" height="30" as="geometry" />
        </mxCell>
        <mxCell id="H5ex5HH7bCMYKhNWScU4-65" value="&lt;font style=&quot;font-size: 12px;&quot;&gt;Email&lt;br&gt;DB&lt;/font&gt;" style="shape=cylinder3;whiteSpace=wrap;html=1;boundedLbl=1;backgroundOutline=1;size=15;rounded=0;sketch=1;hachureGap=4;jiggle=2;curveFitting=1;strokeWidth=2;fontFamily=Architects Daughter;fontSource=https%3A%2F%2Ffonts.googleapis.com%2Fcss%3Ffamily%3DArchitects%2BDaughter;fontSize=16;fillColor=none;" parent="1" vertex="1">
          <mxGeometry x="1070" y="1470" width="60" height="100" as="geometry" />
        </mxCell>
        <mxCell id="H5ex5HH7bCMYKhNWScU4-66" value="&lt;font style=&quot;font-size: 12px;&quot;&gt;SMS&lt;br&gt;DB&lt;/font&gt;" style="shape=cylinder3;whiteSpace=wrap;html=1;boundedLbl=1;backgroundOutline=1;size=15;rounded=0;sketch=1;hachureGap=4;jiggle=2;curveFitting=1;strokeWidth=2;fontFamily=Architects Daughter;fontSource=https%3A%2F%2Ffonts.googleapis.com%2Fcss%3Ffamily%3DArchitects%2BDaughter;fontSize=16;fillColor=none;" parent="1" vertex="1">
          <mxGeometry x="1140" y="1470" width="60" height="100" as="geometry" />
        </mxCell>
        <mxCell id="H5ex5HH7bCMYKhNWScU4-104" style="edgeStyle=orthogonalEdgeStyle;rounded=0;sketch=1;hachureGap=4;jiggle=2;curveFitting=1;orthogonalLoop=1;jettySize=auto;html=1;entryX=0.5;entryY=1;entryDx=0;entryDy=0;entryPerimeter=0;fontFamily=Architects Daughter;fontSource=https%3A%2F%2Ffonts.googleapis.com%2Fcss%3Ffamily%3DArchitects%2BDaughter;fontSize=16;" parent="1" source="H5ex5HH7bCMYKhNWScU4-69" target="H5ex5HH7bCMYKhNWScU4-66" edge="1">
          <mxGeometry relative="1" as="geometry" />
        </mxCell>
        <mxCell id="H5ex5HH7bCMYKhNWScU4-69" value="Kafka Sink Connector" style="whiteSpace=wrap;html=1;aspect=fixed;rounded=0;sketch=1;hachureGap=4;jiggle=2;curveFitting=1;strokeWidth=2;fontFamily=Architects Daughter;fontSource=https%3A%2F%2Ffonts.googleapis.com%2Fcss%3Ffamily%3DArchitects%2BDaughter;fontSize=16;fillColor=none;" parent="1" vertex="1">
          <mxGeometry x="887.5" y="1550" width="80" height="80" as="geometry" />
        </mxCell>
        <mxCell id="H5ex5HH7bCMYKhNWScU4-75" value="Customer Services" style="whiteSpace=wrap;html=1;aspect=fixed;rounded=0;sketch=1;hachureGap=4;jiggle=2;curveFitting=1;strokeWidth=2;fontFamily=Architects Daughter;fontSource=https%3A%2F%2Ffonts.googleapis.com%2Fcss%3Ffamily%3DArchitects%2BDaughter;fontSize=16;fillColor=none;" parent="1" vertex="1">
          <mxGeometry x="360" y="2020" width="80" height="80" as="geometry" />
        </mxCell>
        <mxCell id="H5ex5HH7bCMYKhNWScU4-76" value="Account Services" style="whiteSpace=wrap;html=1;aspect=fixed;rounded=0;sketch=1;hachureGap=4;jiggle=2;curveFitting=1;strokeWidth=2;fontFamily=Architects Daughter;fontSource=https%3A%2F%2Ffonts.googleapis.com%2Fcss%3Ffamily%3DArchitects%2BDaughter;fontSize=16;fillColor=none;" parent="1" vertex="1">
          <mxGeometry x="470" y="2020" width="80" height="80" as="geometry" />
        </mxCell>
        <mxCell id="H5ex5HH7bCMYKhNWScU4-77" value="Trans actions / AML" style="whiteSpace=wrap;html=1;aspect=fixed;rounded=0;sketch=1;hachureGap=4;jiggle=2;curveFitting=1;strokeWidth=2;fontFamily=Architects Daughter;fontSource=https%3A%2F%2Ffonts.googleapis.com%2Fcss%3Ffamily%3DArchitects%2BDaughter;fontSize=16;fillColor=none;" parent="1" vertex="1">
          <mxGeometry x="580" y="2020" width="80" height="80" as="geometry" />
        </mxCell>
        <mxCell id="H5ex5HH7bCMYKhNWScU4-78" value="Payment&lt;br&gt;Services" style="whiteSpace=wrap;html=1;aspect=fixed;rounded=0;sketch=1;hachureGap=4;jiggle=2;curveFitting=1;strokeWidth=2;fontFamily=Architects Daughter;fontSource=https%3A%2F%2Ffonts.googleapis.com%2Fcss%3Ffamily%3DArchitects%2BDaughter;fontSize=16;fillColor=none;" parent="1" vertex="1">
          <mxGeometry x="690" y="2020" width="80" height="80" as="geometry" />
        </mxCell>
        <mxCell id="H5ex5HH7bCMYKhNWScU4-79" value="Card&lt;br&gt;Services" style="whiteSpace=wrap;html=1;aspect=fixed;rounded=0;sketch=1;hachureGap=4;jiggle=2;curveFitting=1;strokeWidth=2;fontFamily=Architects Daughter;fontSource=https%3A%2F%2Ffonts.googleapis.com%2Fcss%3Ffamily%3DArchitects%2BDaughter;fontSize=16;fillColor=none;" parent="1" vertex="1">
          <mxGeometry x="800" y="2020" width="80" height="80" as="geometry" />
        </mxCell>
        <mxCell id="H5ex5HH7bCMYKhNWScU4-80" value="TPP&lt;br&gt;Services" style="whiteSpace=wrap;html=1;aspect=fixed;rounded=0;sketch=1;hachureGap=4;jiggle=2;curveFitting=1;strokeWidth=2;fontFamily=Architects Daughter;fontSource=https%3A%2F%2Ffonts.googleapis.com%2Fcss%3Ffamily%3DArchitects%2BDaughter;fontSize=16;fillColor=none;" parent="1" vertex="1">
          <mxGeometry x="920" y="2020" width="80" height="80" as="geometry" />
        </mxCell>
        <mxCell id="H5ex5HH7bCMYKhNWScU4-81" value="Other&lt;br&gt;Services" style="whiteSpace=wrap;html=1;aspect=fixed;rounded=0;sketch=1;hachureGap=4;jiggle=2;curveFitting=1;strokeWidth=2;fontFamily=Architects Daughter;fontSource=https%3A%2F%2Ffonts.googleapis.com%2Fcss%3Ffamily%3DArchitects%2BDaughter;fontSize=16;fillColor=none;" parent="1" vertex="1">
          <mxGeometry x="1040" y="2020" width="80" height="80" as="geometry" />
        </mxCell>
        <mxCell id="H5ex5HH7bCMYKhNWScU4-82" value="Other&lt;br&gt;Services" style="whiteSpace=wrap;html=1;aspect=fixed;rounded=0;sketch=1;hachureGap=4;jiggle=2;curveFitting=1;strokeWidth=2;fontFamily=Architects Daughter;fontSource=https%3A%2F%2Ffonts.googleapis.com%2Fcss%3Ffamily%3DArchitects%2BDaughter;fontSize=16;fillColor=none;" parent="1" vertex="1">
          <mxGeometry x="1160" y="2020" width="80" height="80" as="geometry" />
        </mxCell>
        <mxCell id="H5ex5HH7bCMYKhNWScU4-83" value="SMS Provider 1" style="rounded=0;whiteSpace=wrap;html=1;sketch=1;hachureGap=4;jiggle=2;curveFitting=1;strokeWidth=2;fontFamily=Architects Daughter;fontSource=https%3A%2F%2Ffonts.googleapis.com%2Fcss%3Ffamily%3DArchitects%2BDaughter;fontSize=16;fillColor=none;" parent="1" vertex="1">
          <mxGeometry x="1509" y="760" width="150" height="60" as="geometry" />
        </mxCell>
        <mxCell id="H5ex5HH7bCMYKhNWScU4-84" value="SMS Provider 2" style="rounded=0;whiteSpace=wrap;html=1;sketch=1;hachureGap=4;jiggle=2;curveFitting=1;strokeWidth=2;fontFamily=Architects Daughter;fontSource=https%3A%2F%2Ffonts.googleapis.com%2Fcss%3Ffamily%3DArchitects%2BDaughter;fontSize=16;fillColor=none;" parent="1" vertex="1">
          <mxGeometry x="1530" y="800" width="150" height="60" as="geometry" />
        </mxCell>
        <mxCell id="H5ex5HH7bCMYKhNWScU4-86" value="Email Provider 1" style="rounded=0;whiteSpace=wrap;html=1;sketch=1;hachureGap=4;jiggle=2;curveFitting=1;strokeWidth=2;fontFamily=Architects Daughter;fontSource=https%3A%2F%2Ffonts.googleapis.com%2Fcss%3Ffamily%3DArchitects%2BDaughter;fontSize=16;fillColor=none;" parent="1" vertex="1">
          <mxGeometry x="1509" y="897" width="150" height="60" as="geometry" />
        </mxCell>
        <mxCell id="H5ex5HH7bCMYKhNWScU4-87" value="Email Provider 2" style="rounded=0;whiteSpace=wrap;html=1;sketch=1;hachureGap=4;jiggle=2;curveFitting=1;strokeWidth=2;fontFamily=Architects Daughter;fontSource=https%3A%2F%2Ffonts.googleapis.com%2Fcss%3Ffamily%3DArchitects%2BDaughter;fontSize=16;fillColor=none;" parent="1" vertex="1">
          <mxGeometry x="1520" y="948" width="150" height="60" as="geometry" />
        </mxCell>
        <mxCell id="H5ex5HH7bCMYKhNWScU4-89" value="Firebase" style="rounded=0;whiteSpace=wrap;html=1;sketch=1;hachureGap=4;jiggle=2;curveFitting=1;strokeWidth=2;fontFamily=Architects Daughter;fontSource=https%3A%2F%2Ffonts.googleapis.com%2Fcss%3Ffamily%3DArchitects%2BDaughter;fontSize=16;fillColor=none;" parent="1" vertex="1">
          <mxGeometry x="1522" y="1050" width="150" height="60" as="geometry" />
        </mxCell>
        <mxCell id="H5ex5HH7bCMYKhNWScU4-99" style="edgeStyle=orthogonalEdgeStyle;rounded=0;sketch=1;hachureGap=4;jiggle=2;curveFitting=1;orthogonalLoop=1;jettySize=auto;html=1;entryX=0.5;entryY=1;entryDx=0;entryDy=0;entryPerimeter=0;fontFamily=Architects Daughter;fontSource=https%3A%2F%2Ffonts.googleapis.com%2Fcss%3Ffamily%3DArchitects%2BDaughter;fontSize=16;" parent="1" source="H5ex5HH7bCMYKhNWScU4-96" target="H5ex5HH7bCMYKhNWScU4-98" edge="1">
          <mxGeometry relative="1" as="geometry" />
        </mxCell>
        <mxCell id="H5ex5HH7bCMYKhNWScU4-96" value="RAW Data Notification Processor" style="rounded=0;whiteSpace=wrap;html=1;sketch=1;hachureGap=4;jiggle=2;curveFitting=1;strokeWidth=2;fontFamily=Architects Daughter;fontSource=https%3A%2F%2Ffonts.googleapis.com%2Fcss%3Ffamily%3DArchitects%2BDaughter;fontSize=16;fillColor=none;" parent="1" vertex="1">
          <mxGeometry x="725" y="1700" width="230" height="90" as="geometry" />
        </mxCell>
        <mxCell id="H5ex5HH7bCMYKhNWScU4-98" value="" style="shape=cylinder3;whiteSpace=wrap;html=1;boundedLbl=1;backgroundOutline=1;size=15;rounded=0;sketch=1;hachureGap=4;jiggle=2;curveFitting=1;fontFamily=Architects Daughter;fontSource=https%3A%2F%2Ffonts.googleapis.com%2Fcss%3Ffamily%3DArchitects%2BDaughter;fontSize=20;fillColor=#FFFFFF;rotation=-90;" parent="1" vertex="1">
          <mxGeometry x="620" y="1550" width="40" height="210" as="geometry" />
        </mxCell>
        <mxCell id="H5ex5HH7bCMYKhNWScU4-102" style="edgeStyle=orthogonalEdgeStyle;rounded=0;sketch=1;hachureGap=4;jiggle=2;curveFitting=1;orthogonalLoop=1;jettySize=auto;html=1;fontFamily=Architects Daughter;fontSource=https%3A%2F%2Ffonts.googleapis.com%2Fcss%3Ffamily%3DArchitects%2BDaughter;fontSize=16;entryX=0.5;entryY=0;entryDx=0;entryDy=0;entryPerimeter=0;" parent="1" source="H5ex5HH7bCMYKhNWScU4-100" target="H5ex5HH7bCMYKhNWScU4-98" edge="1">
          <mxGeometry relative="1" as="geometry" />
        </mxCell>
        <mxCell id="H5ex5HH7bCMYKhNWScU4-100" value="Notification Micro-service" style="rounded=0;whiteSpace=wrap;html=1;sketch=1;hachureGap=4;jiggle=2;curveFitting=1;strokeWidth=2;fontFamily=Architects Daughter;fontSource=https%3A%2F%2Ffonts.googleapis.com%2Fcss%3Ffamily%3DArchitects%2BDaughter;fontSize=16;fillColor=none;" parent="1" vertex="1">
          <mxGeometry x="310" y="1500" width="230" height="90" as="geometry" />
        </mxCell>
        <mxCell id="H5ex5HH7bCMYKhNWScU4-105" style="edgeStyle=orthogonalEdgeStyle;rounded=0;sketch=1;hachureGap=4;jiggle=2;curveFitting=1;orthogonalLoop=1;jettySize=auto;html=1;entryX=0;entryY=0.5;entryDx=0;entryDy=0;fontFamily=Architects Daughter;fontSource=https%3A%2F%2Ffonts.googleapis.com%2Fcss%3Ffamily%3DArchitects%2BDaughter;fontSize=16;" parent="1" source="H5ex5HH7bCMYKhNWScU4-103" target="H5ex5HH7bCMYKhNWScU4-69" edge="1">
          <mxGeometry relative="1" as="geometry" />
        </mxCell>
        <mxCell id="H5ex5HH7bCMYKhNWScU4-103" value="&lt;font style=&quot;font-size: 16px;&quot;&gt;Avro Data&lt;/font&gt;" style="text;html=1;strokeColor=none;fillColor=none;align=center;verticalAlign=middle;whiteSpace=wrap;rounded=0;fontSize=20;fontFamily=Architects Daughter;" parent="1" vertex="1">
          <mxGeometry x="560" y="1640" width="180" height="30" as="geometry" />
        </mxCell>
        <mxCell id="H5ex5HH7bCMYKhNWScU4-109" value="&lt;font style=&quot;font-size: 16px;&quot;&gt;Experience Layer&lt;/font&gt;" style="text;html=1;strokeColor=none;fillColor=none;align=center;verticalAlign=middle;whiteSpace=wrap;rounded=0;fontSize=20;fontFamily=Architects Daughter;" parent="1" vertex="1">
          <mxGeometry x="280" y="620" width="180" height="30" as="geometry" />
        </mxCell>
        <mxCell id="H5ex5HH7bCMYKhNWScU4-110" value="&lt;font style=&quot;font-size: 26px;&quot;&gt;&lt;b&gt;Core Banking Messaging System&amp;nbsp;&lt;/b&gt;&lt;/font&gt;" style="text;html=1;strokeColor=none;fillColor=none;align=center;verticalAlign=middle;whiteSpace=wrap;rounded=0;fontSize=16;fontFamily=Architects Daughter;" parent="1" vertex="1">
          <mxGeometry x="570" y="382" width="462" height="30" as="geometry" />
        </mxCell>
      </root>
    </mxGraphModel>
  </diagram>
</mxfile>
